<svg xmlns="http://www.w3.org/2000/svg" viewBox="229.913 219.502 16 15.408"><g transform="translate(-134.07 -225.8)" xmlns:inkscape="http://www.inkscape.org/namespaces/inkscape" xmlns:rdf="http://www.w3.org/1999/02/22-rdf-syntax-ns#" xmlns:svg="http://www.w3.org/2000/svg" xmlns:cc="http://creativecommons.org/ns#" xmlns:dc="http://purl.org/dc/elements/1.1/" xmlns:sodipodi="http://sodipodi.sourceforge.net/DTD/sodipodi-0.dtd"><linearGradient id="c" y2="445.91" gradientUnits="userSpaceOnUse" x2="371.98" y1="459.74" x1="371.98"><stop offset="0" stop-color="#67a42c"/><stop offset=".767" stop-color="#88cd44"/><stop offset=".865" stop-color="#99da4c"/><stop offset="1" stop-color="#b8f059"/></linearGradient><path d="M368.43 445.91a3.92 3.92 0 0 0-3.92 3.919c0 4.401 4.438 5.555 7.464 9.904 2.863-4.321 7.464-5.645 7.464-9.904a3.915 3.915 0 1 0-7.464-1.659 3.908 3.908 0 0 0-3.54-2.26z" stroke="#5A822F" stroke-width="1.006" fill="url(#c)"/></g><g opacity=".32" transform="translate(-134.07 -225.8)" xmlns:inkscape="http://www.inkscape.org/namespaces/inkscape" xmlns:rdf="http://www.w3.org/1999/02/22-rdf-syntax-ns#" xmlns:svg="http://www.w3.org/2000/svg" xmlns:cc="http://creativecommons.org/ns#" xmlns:dc="http://purl.org/dc/elements/1.1/" xmlns:sodipodi="http://sodipodi.sourceforge.net/DTD/sodipodi-0.dtd"><linearGradient id="d" y2="448.07" gradientUnits="userSpaceOnUse" x2="372.62" y1="459.74" x1="372.62"><stop offset="0" stop-color="#4c662b"/><stop offset="1" stop-color="#4c662b"/></linearGradient><path d="M365.8 453.43c1.543 1.95 4.169 3.427 6.172 6.311 2.576-3.889 9.168-6.734 7.043-11.666-.301 2.726-3 4.479-5.584 5.271-1.73.53-5.12 1.34-7.63.09z" fill="url(#d)"/></g><path d="M233.97 221.84a2.032 2.032 0 0 0-2.035 2.037c0 .45.09.835.246 1.181-.16-1.26.67-2.78 1.78-3.22z" fill="#FFF" xmlns:inkscape="http://www.inkscape.org/namespaces/inkscape" xmlns:rdf="http://www.w3.org/1999/02/22-rdf-syntax-ns#" xmlns:svg="http://www.w3.org/2000/svg" xmlns:cc="http://creativecommons.org/ns#" xmlns:dc="http://purl.org/dc/elements/1.1/" xmlns:sodipodi="http://sodipodi.sourceforge.net/DTD/sodipodi-0.dtd"/><path d="M234.36 220.11a3.92 3.92 0 0 0-3.92 3.919c0 4.401 4.438 5.555 7.464 9.904 2.863-4.321 7.464-5.645 7.464-9.904a3.915 3.915 0 1 0-7.464-1.659 3.908 3.908 0 0 0-3.54-2.26z" stroke="#4C662B" stroke-width="1.006" fill="none" xmlns:inkscape="http://www.inkscape.org/namespaces/inkscape" xmlns:rdf="http://www.w3.org/1999/02/22-rdf-syntax-ns#" xmlns:svg="http://www.w3.org/2000/svg" xmlns:cc="http://creativecommons.org/ns#" xmlns:dc="http://purl.org/dc/elements/1.1/" xmlns:sodipodi="http://sodipodi.sourceforge.net/DTD/sodipodi-0.dtd"/></svg>